<svg width="22" height="21" viewBox="0 0 22 21" fill="none" xmlns="http://www.w3.org/2000/svg">
<path fill-rule="evenodd" clip-rule="evenodd" d="M0.0140753 7.79158C-0.0590997 7.49888 0.162275 7.21533 0.46398 7.21533H21.536C21.8377 7.21533 22.0591 7.49888 21.986 7.79158L19.0593 19.4978C18.9561 19.9107 18.5851 20.2003 18.1595 20.2003H3.84044C3.41484 20.2003 3.04385 19.9107 2.94063 19.4978L0.0140753 7.79158ZM11.75 11.3328C11.75 10.9186 11.4142 10.5828 11 10.5828C10.5858 10.5828 10.25 10.9186 10.25 11.3328V16.0828C10.25 16.497 10.5858 16.8328 11 16.8328C11.4142 16.8328 11.75 16.497 11.75 16.0828V11.3328ZM16.0688 10.7713C16.458 10.913 16.6588 11.3434 16.517 11.7326L14.8925 16.1961C14.7508 16.5854 14.3204 16.7861 13.9312 16.6444C13.542 16.5027 13.3413 16.0723 13.483 15.6831L15.1075 11.2196C15.2492 10.8303 15.6796 10.6296 16.0688 10.7713ZM6.89245 11.2196C6.7508 10.8303 6.3204 10.6296 5.9312 10.7713C5.54195 10.913 5.34125 11.3434 5.48295 11.7326L7.1075 16.1961C7.2492 16.5854 7.6796 16.7861 8.0688 16.6444C8.45805 16.5027 8.65875 16.0723 8.51705 15.6831L6.89245 11.2196Z" fill="#3C3737"/>
<path d="M17.5 8.20755L12.5887 1.7851C11.7882 0.7383 10.2118 0.7383 9.4113 1.7851L4.5 8.20755" stroke="#3C3737" stroke-width="2" stroke-linecap="round" stroke-linejoin="round"/>
</svg>
