<svg width="42" height="42" viewBox="0 0 42 42" fill="none" xmlns="http://www.w3.org/2000/svg">
<path d="M41.5775 20.7888C41.5775 32.2701 32.2701 41.5775 20.7888 41.5775C9.30745 41.5775 0 32.2701 0 20.7888C0 9.30745 9.30745 0 20.7888 0C32.2701 0 41.5775 9.30745 41.5775 20.7888Z" fill="url(#paint0_linear_1_1544)"/>
<path d="M20.8302 32.2971C20.8302 33.3225 20.0731 34.1538 19.1392 34.1538C18.2052 34.1538 17.4481 33.3225 17.4481 32.2971C17.4481 31.2717 18.2052 30.4404 19.1392 30.4404C20.0731 30.4404 20.8302 31.2717 20.8302 32.2971Z" fill="white"/>
<path d="M28.2707 32.2971C28.2707 33.3225 27.5135 34.1538 26.5796 34.1538C25.6457 34.1538 24.8885 33.3225 24.8885 32.2971C24.8885 31.2717 25.6457 30.4404 26.5796 30.4404C27.5135 30.4404 28.2707 31.2717 28.2707 32.2971Z" fill="white"/>
<path d="M23.6473 20.6185L24.6586 20.6188V23.1656C24.6586 24.2223 24.0281 25.0785 23.1606 25.196C22.7465 25.2547 22.2381 25.2841 21.6359 25.2841C16.693 25.2841 15.0576 18.673 17.1777 14.3921L11.4275 10.7469C10.8614 10.3883 10.1374 10.6012 9.81058 11.2227C9.4836 11.8443 9.67764 12.6391 10.2437 12.9981L12.4581 14.4019C10.3889 21.8177 14.1325 28.9811 21.3535 28.9811C22.8029 28.9811 24.0924 28.8738 25.2218 28.6584C25.5137 28.6036 25.7824 28.5441 26.0382 28.4792C26.3239 28.4067 26.5936 28.328 26.8613 28.2428C27.6668 27.9871 28.2131 27.0853 28.2131 26.0771V17.6772C28.2131 17.2598 27.9336 16.9214 27.5887 16.9214H20.5345C20.5345 16.9214 20.7134 17.4926 21.0491 18.1859C21.5677 19.2568 22.4604 20.6185 23.6473 20.6185Z" fill="white"/>
<path d="M14.5034 10.5812C17.1292 7.67073 21.1381 7.37737 24.8213 7.43067C25.1942 7.43611 25.5666 7.44155 25.9378 7.44337C26.0564 7.44373 26.138 7.575 26.0944 7.69612C25.2885 9.93536 24.5846 10.9776 22.4829 11.1411C20.849 11.1411 19.3163 11.7336 18.1943 12.9209L14.5034 10.5812Z" fill="white"/>
<defs>
<linearGradient id="paint0_linear_1_1544" x1="9.00847" y1="1.48491" x2="43.821" y2="33.9766" gradientUnits="userSpaceOnUse">
<stop stop-color="#FF5E5F"/>
<stop offset="1" stop-color="#F54748"/>
</linearGradient>
</defs>
</svg>
