<svg width="107" height="21" viewBox="0 0 107 21" fill="none" xmlns="http://www.w3.org/2000/svg">
<path d="M16.0813 15.8611C14.806 16.4887 13.5307 16.7169 12.162 16.7169C7.99398 16.7169 5.10122 14.0639 5.10122 10.3268C5.10122 6.53272 7.99398 3.93675 12.2243 3.93675C14.4327 3.93675 16.2679 4.64993 17.8543 6.19039L21.0892 3.45179C18.974 1.19814 15.8013 0 11.9754 0C5.03901 0 0 4.3076 0 10.3268C0 16.3461 5.03901 20.6537 11.8821 20.6537C14.9926 20.6537 18.2897 19.7693 20.6848 18.1147V10.013H16.0813V15.8611Z" fill="#2E2E2E"/>
<path d="M29.6581 6.98915V4.96373H25.0235V20.3113H29.8758V13.0654C29.8758 10.1271 31.6488 8.78637 34.3239 8.78637C34.6971 8.78637 35.0082 8.81489 35.4125 8.84342V4.73551C32.8308 4.73551 30.8401 5.50574 29.6581 6.98915Z" fill="#2E2E2E"/>
<path d="M46.1087 20.5396C51.4277 20.5396 55.2847 17.2589 55.2847 12.6375C55.2847 8.01613 51.4277 4.73551 46.1087 4.73551C40.7898 4.73551 36.9017 8.01613 36.9017 12.6375C36.9017 17.2589 40.7898 20.5396 46.1087 20.5396ZM46.1087 16.8881C43.6826 16.8881 41.8163 15.2906 41.8163 12.6375C41.8163 9.98451 43.6826 8.38699 46.1087 8.38699C48.5349 8.38699 50.3701 9.98451 50.3701 12.6375C50.3701 15.2906 48.5349 16.8881 46.1087 16.8881Z" fill="#2E2E2E"/>
<path d="M70.0168 4.96373L65.2266 15.4047L60.592 4.96373H55.5841L62.6138 20.3113H67.6217L74.6825 4.96373H70.0168Z" fill="#2E2E2E"/>
<path d="M92.5993 12.6946C92.5993 7.75939 88.8045 4.73551 83.8899 4.73551C78.7887 4.73551 74.9627 8.04466 74.9627 12.6375C74.9627 17.2019 78.7264 20.5396 84.512 20.5396C87.5291 20.5396 89.862 19.6837 91.4173 18.0577L88.8355 15.4902C87.6847 16.4887 86.4094 16.9737 84.6364 16.9737C82.0858 16.9737 80.3128 15.804 79.8462 13.8927H92.5059C92.537 13.5219 92.5993 13.0369 92.5993 12.6946ZM83.921 8.10171C86.0983 8.10171 87.6847 9.35691 88.0268 11.2968H79.784C80.1262 9.32838 81.7125 8.10171 83.921 8.10171Z" fill="#2E2E2E"/>
<path d="M100.464 6.98915V4.96373H95.8298V20.3113H100.682V13.0654C100.682 10.1271 102.455 8.78637 105.13 8.78637C105.503 8.78637 105.814 8.81489 106.219 8.84342V4.73551C103.637 4.73551 101.646 5.50574 100.464 6.98915Z" fill="#2E2E2E"/>
</svg>
